<svg xmlns="http://www.w3.org/2000/svg" viewBox="0 0 512 512">
  <defs>
    <linearGradient id="bg" x1="0%" y1="0%" x2="100%" y2="100%">
      <stop offset="0%" style="stop-color:#0a1628"/>
      <stop offset="100%" style="stop-color:#0e2440"/>
    </linearGradient>
    <linearGradient id="grd" x1="0%" y1="0%" x2="100%" y2="100%">
      <stop offset="0%" style="stop-color:#6ee7b7"/>
      <stop offset="100%" style="stop-color:#7dd3fc"/>
    </linearGradient>
  </defs>
  <rect width="512" height="512" rx="120" fill="url(#bg)"/>
  <circle cx="350" cy="80" r="180" fill="rgba(45,212,191,0.07)"/>
  <path d="M200 140 L200 280 L160 360 Q148 384 170 396 L342 396 Q364 384 352 360 L312 280 L312 140 Z" fill="none" stroke="url(#grd)" stroke-width="18" stroke-linejoin="round"/>
  <path d="M180 320 Q195 305 256 315 Q310 325 340 308 L352 360 Q364 384 342 396 L170 396 Q148 384 160 360 Z" fill="url(#grd)" opacity="0.25"/>
  <circle cx="220" cy="350" r="10" fill="url(#grd)" opacity="0.5"/>
  <circle cx="260" cy="330" r="7" fill="url(#grd)" opacity="0.4"/>
  <circle cx="295" cy="355" r="12" fill="url(#grd)" opacity="0.45"/>
  <line x1="185" y1="140" x2="327" y2="140" stroke="url(#grd)" stroke-width="18" stroke-linecap="round"/>
  <text x="355" y="200" font-size="36" fill="#6ee7b7" opacity="0.7">✦</text>
  <text x="130" y="430" font-size="24" fill="#7dd3fc" opacity="0.5">✦</text>
</svg>
